<?xml version="1.0" encoding="UTF-8" standalone="no"?>
<!-- Created with Inkscape (http://www.inkscape.org/) -->

<svg
   width="512.0px"
   height="512.0px"
   viewBox="0 0 512.0 512.0"
   version="1.1"
   id="SVGRoot"
   sodipodi:docname="favicon.svg"
   inkscape:version="1.1.2 (b8e25be8, 2022-02-05)"
   xmlns:inkscape="http://www.inkscape.org/namespaces/inkscape"
   xmlns:sodipodi="http://sodipodi.sourceforge.net/DTD/sodipodi-0.dtd"
   xmlns="http://www.w3.org/2000/svg"
   xmlns:svg="http://www.w3.org/2000/svg">
  <sodipodi:namedview
     id="namedview1260"
     pagecolor="#ffffff"
     bordercolor="#666666"
     borderopacity="1.0"
     inkscape:pageshadow="2"
     inkscape:pageopacity="0.0"
     inkscape:pagecheckerboard="0"
     inkscape:document-units="px"
     showgrid="true"
     inkscape:zoom="0.43028199"
     inkscape:cx="397.4138"
     inkscape:cy="561.25984"
     inkscape:window-width="1280"
     inkscape:window-height="711"
     inkscape:window-x="0"
     inkscape:window-y="23"
     inkscape:window-maximized="0"
     inkscape:current-layer="layer1" />
  <defs
     id="defs1255" />
  <g
     inkscape:label="Layer 1"
     inkscape:groupmode="layer"
     id="layer1">
    <g
       id="g15172-8-1"
       transform="matrix(21.363352,-6.4280691,5.825558,19.360938,-855.19125,307.34937)"
       style="stroke-width:1.05044">
      <g
         id="g12842-5-0"
         transform="translate(-0.43570688,-1.0892672)"
         style="stroke-width:1.05044">
        <path
           style="fill:#dd4400;fill-opacity:1;stroke:#662200;stroke-width:1.11171;stroke-linecap:butt;stroke-linejoin:miter;stroke-miterlimit:4;stroke-dasharray:none;stroke-opacity:1"
           d="m 50.215217,9.1498443 c 0.653561,0.363089 1.372241,0.6280581 1.960682,1.0892667 1.476547,1.157294 1.95082,1.994687 2.941021,3.267802 0.09436,0.121316 0.956289,0.786538 0.65356,1.089267 -0.406,0.406 -6.759683,3.454529 -6.97131,2.396388 -0.153437,-0.767178 0.271891,-1.546471 0.326779,-2.287461 0.03169,-0.427822 -0.102481,-5.9525124 1.089268,-5.5552627 z"
           id="path11761-3-4" />
        <path
           style="fill:#dd4400;fill-opacity:1;stroke:#662200;stroke-width:1.11171;stroke-linecap:round;stroke-linejoin:round;stroke-miterlimit:4;stroke-dasharray:none;stroke-opacity:1"
           d="m 47.927757,16.992568 c 3.589414,5.925914 -6.94104,6.658675 -9.040918,3.158875 -1.560254,-2.600421 -1.967193,-8.647242 0.871413,-10.6748185 1.068226,-0.7630191 3.000025,-0.9185018 4.248142,-0.7624871 1.140978,0.1426224 1.54406,0.8809572 2.396387,1.3071206 4.070585,-3.1635726 6.753458,1.760492 6.862385,4.248142 1.531343,0.154299 2.951153,-0.284033 4.465995,0 1.457184,0.273222 2.302199,3.69614 0.980341,4.357069 -2.637861,1.31893 -6.227714,2.036447 -9.040919,2.505314 -0.592244,0.09871 -1.307549,-0.108712 -1.742827,0.108927"
           id="path9566-7-9"
           sodipodi:nodetypes="csssccsssc" />
        <path
           style="fill:#dd4400;fill-opacity:1;stroke:#662200;stroke-width:1.11171;stroke-linecap:butt;stroke-linejoin:miter;stroke-miterlimit:4;stroke-dasharray:none;stroke-opacity:1"
           d="M 46.477612,9.1578938 C 45.741498,8.651563 45.106732,8.0890292 44.316131,7.6391675 43.915608,7.4112641 39.981167,6.0415936 41.308654,5.7386496 c 1.334265,-0.3044914 2.981092,-0.312207 4.310535,-0.408847 1.103154,-0.08019 3.645041,-0.7329371 4.727764,-0.1382435 0.05601,0.030767 -0.121216,0.041713 -0.179595,0.067114 -1.105143,0.2278596 -2.725821,0.9796959 -3.261555,1.6066 -0.680579,0.7543738 0.06886,1.5196305 -0.428191,2.2926207 z"
           id="path9911-9-0"
           sodipodi:nodetypes="cssssccc" />
        <ellipse
           style="fill:#223344;fill-opacity:1;fill-rule:evenodd;stroke:none;stroke-width:1.11171;stroke-linecap:round;stroke-linejoin:round;stroke-miterlimit:4;stroke-dasharray:none;stroke-opacity:1"
           id="path10844-6-0"
           cx="55.171375"
           cy="15.08635"
           rx="2.7776313"
           ry="0.81695038" />
      </g>
      <g
         id="g15161-3-0"
         style="stroke-width:1.05044">
        <ellipse
           style="fill:#112233;fill-opacity:1;fill-rule:evenodd;stroke:none;stroke-width:1.11171;stroke-linecap:round;stroke-linejoin:round;stroke-miterlimit:4;stroke-dasharray:none;stroke-opacity:1"
           id="path12866-1-3"
           cx="45.531372"
           cy="12.090867"
           rx="1.5249741"
           ry="1.3071207" />
        <ellipse
           style="fill:#112233;fill-opacity:1;fill-rule:evenodd;stroke:none;stroke-width:1.11171;stroke-linecap:round;stroke-linejoin:round;stroke-miterlimit:4;stroke-dasharray:none;stroke-opacity:1"
           id="path12866-9-5-2"
           cx="52.1759"
           cy="10.783746"
           rx="1.5249741"
           ry="1.3071207" />
        <path
           style="fill:none;stroke:#112233;stroke-width:1.11171;stroke-linecap:round;stroke-linejoin:round;stroke-miterlimit:4;stroke-dasharray:none;stroke-opacity:1"
           d="m 49.017023,15.358667 c 0.424682,0.862674 0.983636,2.304434 1.960681,2.723168 1.631678,0.699291 4.465476,0.109445 5.664189,-1.089267"
           id="path14336-8-8" />
      </g>
    </g>
  </g>
</svg>
