<?xml version="1.0" encoding="UTF-8" standalone="no"?>
<!-- Created with Inkscape (http://www.inkscape.org/) -->

<svg
   width="192.00014"
   height="16.000057"
   viewBox="0 0 192.00014 16.000057"
   version="1.1"
   id="SVGRoot"
   sodipodi:docname="nowPlayingText.svg"
   inkscape:version="1.1.2 (b8e25be8, 2022-02-05)"
   xmlns:inkscape="http://www.inkscape.org/namespaces/inkscape"
   xmlns:sodipodi="http://sodipodi.sourceforge.net/DTD/sodipodi-0.dtd"
   xmlns:xlink="http://www.w3.org/1999/xlink"
   xmlns="http://www.w3.org/2000/svg"
   xmlns:svg="http://www.w3.org/2000/svg">
  <sodipodi:namedview
     id="namedview15"
     pagecolor="#ffffff"
     bordercolor="#666666"
     borderopacity="1.0"
     inkscape:pageshadow="2"
     inkscape:pageopacity="0.0"
     inkscape:pagecheckerboard="0"
     showgrid="false"
     inkscape:zoom="4.091641"
     inkscape:cx="146.15163"
     inkscape:cy="4.5214133"
     inkscape:window-width="1280"
     inkscape:window-height="711"
     inkscape:window-x="0"
     inkscape:window-y="23"
     inkscape:window-maximized="0"
     inkscape:current-layer="SVGRoot"
     inkscape:snap-nodes="true"
     inkscape:snap-page="true" />
  <defs
     id="defs7116">
    <linearGradient
       inkscape:collect="always"
       id="linearGradient1272">
      <stop
         style="stop-color:#cc00cc;stop-opacity:1;"
         offset="0"
         id="stop1268" />
      <stop
         style="stop-color:#330033;stop-opacity:1"
         offset="1"
         id="stop1270" />
    </linearGradient>
    <linearGradient
       id="linearGradient1150">
      <stop
         style="stop-color:#000000;stop-opacity:1;"
         offset="0"
         id="stop1146" />
      <stop
         style="stop-color:#500ccf;stop-opacity:1"
         offset="1"
         id="stop1148" />
    </linearGradient>
    <linearGradient
       id="linearGradient1144">
      <stop
         style="stop-color:#000000;stop-opacity:1;"
         offset="0"
         id="stop1140" />
      <stop
         style="stop-color:#500ccf;stop-opacity:1"
         offset="1"
         id="stop1142" />
    </linearGradient>
    <linearGradient
       id="linearGradient17198">
      <stop
         style="stop-color:#000000;stop-opacity:1;"
         offset="0"
         id="stop17194" />
      <stop
         style="stop-color:#5500cc;stop-opacity:1"
         offset="1"
         id="stop17196" />
    </linearGradient>
    <linearGradient
       xlink:href="#linearGradient17198"
       id="linearGradient17200"
       x1="188.98602"
       y1="31.167707"
       x2="188.98602"
       y2="7.4629102"
       gradientUnits="userSpaceOnUse"
       gradientTransform="matrix(0.63720259,0,0,0.63720264,0.43072052,2.7176802)" />
    <linearGradient
       xlink:href="#linearGradient17198"
       id="linearGradient17227"
       x1="188.98602"
       y1="7.4629102"
       x2="188.98602"
       y2="31.167707"
       gradientUnits="userSpaceOnUse"
       gradientTransform="matrix(0.63720259,0,0,0.63720264,0.43072052,2.7176802)" />
    <linearGradient
       inkscape:collect="always"
       xlink:href="#linearGradient1150"
       id="linearGradient940"
       x1="96.435059"
       y1="25.067167"
       x2="96.435059"
       y2="8.8118486"
       gradientUnits="userSpaceOnUse" />
    <linearGradient
       inkscape:collect="always"
       xlink:href="#linearGradient17198"
       id="linearGradient963"
       gradientUnits="userSpaceOnUse"
       x1="112.05976"
       y1="22.503477"
       x2="112.05976"
       y2="7.9920192" />
    <linearGradient
       inkscape:collect="always"
       xlink:href="#linearGradient1272"
       id="linearGradient1274"
       x1="135.2719"
       y1="24.811905"
       x2="135.2719"
       y2="8.8118486"
       gradientUnits="userSpaceOnUse" />
  </defs>
  <g
     id="layer1"
     transform="translate(-2.4463667,-8.8118486)"
     style="stroke:url(#linearGradient1274);fill-opacity:1;fill:url(#linearGradient940);stroke-opacity:1">
    <g
       aria-label="Now Playing: Meat Dreams "
       transform="scale(0.90696287,1.102581)"
       id="text12972"
       style="font-size:13.5937px;line-height:0.2;font-family:'Hiragino Kaku Gothic StdN';-inkscape-font-specification:'Hiragino Kaku Gothic StdN';fill:url(#linearGradient940);stroke:url(#linearGradient1274);stroke-width:0.637198;fill-opacity:1;stroke-opacity:1">
      <path
         d="M 7.8063937,10.02097 C 7.2762394,9.2325358 6.9771779,8.6887878 6.8412409,8.3217579 H 3.891408 c 0.081562,0.6253102 0.1087496,1.2370267 0.1087496,2.0254611 v 7.150287 c 0,1.005933 -0.027187,1.604056 -0.1087496,2.134211 H 6.7868661 C 6.7053039,19.047187 6.6781165,18.449065 6.6781165,17.511099 V 14.46611 c 0,-0.666091 -0.027187,-1.413744 -0.095156,-2.025461 0.3806236,0.720466 0.6117166,1.128277 0.9787465,1.672025 l 2.5148349,3.792643 c 0.462185,0.706872 0.774841,1.209839 1.019527,1.7264 h 2.977021 c -0.06797,-0.570936 -0.10875,-1.196246 -0.10875,-2.025462 V 10.388 c 0,-0.8835902 0.02719,-1.4545256 0.10875,-2.0662421 h -2.895459 c 0.08156,0.6253102 0.10875,1.1690582 0.10875,2.0662421 v 3.099364 c 0,0.761247 0.02719,1.386557 0.08156,2.011868 -0.326249,-0.598123 -0.584529,-1.033122 -0.978746,-1.617651 z"
         id="path832"
         style="stroke:url(#linearGradient1274);fill-opacity:1;fill:url(#linearGradient940);stroke-opacity:1" />
      <path
         d="m 19.755894,19.944372 c 2.705146,0 4.499515,-1.794369 4.499515,-4.499515 0,-2.691553 -1.739994,-4.417953 -4.485921,-4.417953 -2.745928,0 -4.485922,1.7264 -4.485922,4.44514 0,2.732334 1.739994,4.472328 4.472328,4.472328 z m 0.02719,-6.878413 c 1.155465,0 1.848744,0.897185 1.848744,2.419679 0,1.508901 -0.679685,2.392491 -1.862337,2.392491 -1.182652,0 -1.889525,-0.910778 -1.889525,-2.419678 0,-1.495307 0.706873,-2.392492 1.903118,-2.392492 z"
         id="path834"
         style="stroke:url(#linearGradient1274);fill-opacity:1;fill:url(#linearGradient940);stroke-opacity:1" />
      <path
         d="m 34.706841,19.631717 c 0.08156,-0.462186 0.163124,-0.802029 0.407811,-1.590463 l 1.522494,-4.934514 c 0.203905,-0.638904 0.407811,-1.25062 0.611716,-1.767181 h -2.922645 c -0.02719,0.434999 -0.122343,1.005934 -0.285468,1.712807 l -0.570935,2.406085 c -0.08156,0.367029 -0.08156,0.367029 -0.122344,0.570935 -0.05437,-0.163124 -0.135937,-0.462186 -0.163124,-0.557342 L 32.395911,12.902835 C 32.192006,12.263931 32.028882,11.611433 31.9881,11.339559 h -1.98468 c -0.05437,0.285468 -0.05437,0.285468 -0.421405,1.563276 l -0.761247,2.474053 c -0.02719,0.122344 -0.02719,0.122344 -0.190312,0.652498 -0.01359,-0.10875 -0.06797,-0.326249 -0.135937,-0.652498 L 27.90999,12.943616 c -0.14953,-0.638904 -0.231093,-1.128277 -0.25828,-1.604057 h -2.922646 c 0.258281,0.693279 0.462186,1.291402 0.611717,1.767181 l 1.522494,4.934514 c 0.2175,0.734059 0.312655,1.101089 0.407811,1.590463 h 2.310929 c 0.05438,-0.326249 0.231093,-0.992341 0.421405,-1.590463 l 0.829216,-2.71874 c 0.06797,-0.190312 0.06797,-0.2175 0.163124,-0.530155 0.02719,0.122344 0.08156,0.299062 0.149531,0.530155 l 0.829216,2.71874 c 0.244686,0.788434 0.353436,1.196245 0.421404,1.590463 z"
         id="path836"
         style="stroke:url(#linearGradient1274);fill-opacity:1;fill:url(#linearGradient940);stroke-opacity:1" />
      <path
         d="m 45.630441,19.631717 c -0.06797,-0.58453 -0.10875,-1.250621 -0.10875,-2.052649 v -1.739994 h 2.147805 c 2.637178,0 4.18686,-1.440932 4.18686,-3.860611 0,-2.3653036 -1.481714,-3.6567051 -4.173267,-3.6567051 h -2.97702 c -0.869997,0 -1.35937,-0.013594 -1.998274,-0.040781 0.08156,0.6389039 0.10875,1.2506204 0.10875,1.9846802 v 7.354192 c 0,0.802028 -0.02719,1.413745 -0.10875,2.011868 z m -0.10875,-6.103572 v -2.895458 h 2.025461 c 0.978747,0 1.508901,0.489373 1.508901,1.427338 0,0.937966 -0.557341,1.46812 -1.508901,1.46812 z"
         id="path838"
         style="stroke:url(#linearGradient1274);fill-opacity:1;fill:url(#linearGradient940);stroke-opacity:1" />
      <path
         d="m 52.966578,8.3217579 c 0.08156,0.5165606 0.10875,1.087496 0.10875,2.0526491 v 7.204661 c 0,0.978746 -0.02719,1.440932 -0.10875,2.052649 h 2.841084 c -0.08156,-0.720467 -0.10875,-1.237027 -0.10875,-2.052649 v -7.204661 c 0,-0.924372 0.02719,-1.4817137 0.10875,-2.0526491 z"
         id="path840"
         style="stroke:url(#linearGradient1274);fill-opacity:1;fill:url(#linearGradient940);stroke-opacity:1" />
      <path
         d="m 62.692234,14.262205 c -0.978746,0.02719 -1.386557,0.04078 -1.916712,0.09516 -1.223433,0.108749 -2.134211,0.394217 -2.827489,0.88359 -0.652498,0.448592 -0.992341,1.128278 -0.992341,1.984681 0,0.747653 0.258281,1.400151 0.747654,1.848743 0.543748,0.502967 1.318589,0.747653 2.35171,0.747653 1.114684,0 1.875931,-0.231092 2.637178,-0.815622 v 0.625311 h 2.637178 c -0.06797,-0.611717 -0.09516,-1.10109 -0.09516,-1.930306 v -3.670299 c 0,-1.223433 -0.380624,-1.971087 -1.25062,-2.446866 -0.530155,-0.285468 -1.508901,-0.47578 -2.514835,-0.47578 -1.318589,0 -2.324523,0.258281 -3.058583,0.774841 -0.570935,0.407811 -0.869996,0.84281 -1.14187,1.644838 l 2.596396,0.421405 c 0.203906,-0.666091 0.666092,-0.951559 1.536088,-0.951559 0.897185,0 1.291402,0.299061 1.291402,0.951559 z m 0,2.120617 c 0,0.407811 -0.176718,0.774841 -0.489373,1.046715 -0.36703,0.312655 -0.978747,0.516561 -1.536088,0.516561 -0.706873,0 -1.114684,-0.285468 -1.114684,-0.774841 0,-0.394217 0.299062,-0.73406 0.788435,-0.897184 0.557342,-0.176719 1.141871,-0.244687 2.35171,-0.271874 z"
         id="path842"
         style="stroke:url(#linearGradient1274);fill-opacity:1;fill:url(#linearGradient940);stroke-opacity:1" />
      <path
         d="m 69.505015,18.897657 -0.285468,0.584529 c -0.203905,0.407811 -0.584529,0.638904 -1.10109,0.638904 -0.353436,0 -0.611716,-0.06797 -1.060308,-0.299062 l -0.299062,2.161399 c 0.747654,0.163124 1.264214,0.231093 1.862337,0.231093 1.549682,0 2.528429,-0.584529 3.072177,-1.862337 l 3.112957,-7.191068 c 0.475779,-1.114683 0.475779,-1.114683 0.815622,-1.821556 h -2.949833 c -0.08156,0.47578 -0.203906,0.869997 -0.584529,1.807963 l -1.209839,3.08577 -1.250621,-3.140145 c -0.285468,-0.73406 -0.462186,-1.318589 -0.530154,-1.753588 h -2.949833 c 0.176718,0.339843 0.231093,0.462186 0.815622,1.821556 z"
         id="path844"
         style="stroke:url(#linearGradient1274);fill-opacity:1;fill:url(#linearGradient940);stroke-opacity:1" />
      <path
         d="m 76.477731,8.3217579 v 2.0390551 h 2.759521 V 8.3217579 Z m -0.04078,3.0178011 c 0.08156,0.611717 0.10875,1.169059 0.10875,2.052649 v 4.18686 c 0,0.869997 -0.02719,1.386557 -0.10875,2.052649 h 2.841084 c -0.06797,-0.58453 -0.10875,-1.318589 -0.10875,-2.052649 v -4.18686 c 0,-0.951559 0.02719,-1.495307 0.10875,-2.052649 z"
         id="path846"
         style="stroke:url(#linearGradient1274);fill-opacity:1;fill:url(#linearGradient940);stroke-opacity:1" />
      <path
         d="m 83.525427,19.631717 c -0.08156,-0.706873 -0.108749,-1.277808 -0.108749,-2.052649 V 14.83314 c 0.584529,-0.951559 1.264214,-1.427338 2.025461,-1.427338 0.407811,0 0.720466,0.135937 0.897184,0.380623 0.163125,0.231093 0.2175,0.462186 0.2175,1.005934 v 2.786709 c 0,0.829216 -0.02719,1.400151 -0.10875,2.052649 h 2.82749 c -0.06797,-0.570936 -0.10875,-1.250621 -0.10875,-2.039055 v -3.412019 c 0,-1.073903 -0.231093,-1.739994 -0.774841,-2.283742 -0.502967,-0.502967 -1.25062,-0.761247 -2.188586,-0.761247 -1.114683,0 -1.943899,0.339842 -2.800302,1.155464 0,-0.09516 0.01359,-0.299061 0.01359,-0.380623 v -0.570936 h -2.705147 c 0.08156,0.543748 0.10875,1.114684 0.10875,2.052649 v 4.18686 c 0,0.842809 -0.02719,1.413745 -0.10875,2.052649 z"
         id="path848"
         style="stroke:url(#linearGradient1274);fill-opacity:1;fill:url(#linearGradient940);stroke-opacity:1" />
      <path
         d="m 90.558466,20.692025 c 0.951559,1.046715 2.174992,1.508901 4.023736,1.508901 1.35937,0 2.501241,-0.285468 3.2353,-0.802028 0.951559,-0.666092 1.413745,-1.767181 1.413745,-3.398425 v -4.771389 c 0,-0.802029 0.02719,-1.277808 0.10875,-1.889525 h -2.664365 v 0.285468 c 0,0.149531 0,0.190312 0,0.299061 -0.73406,-0.557341 -1.46812,-0.788434 -2.474054,-0.788434 -2.324523,0 -3.860611,1.590463 -3.860611,4.010141 0,2.474054 1.495307,4.023736 3.860611,4.023736 1.046715,0 1.780775,-0.271874 2.474054,-0.897184 -0.02719,0.720466 -0.149531,1.128277 -0.434999,1.454526 -0.326249,0.394217 -0.910778,0.598122 -1.658431,0.598122 -0.897185,0 -1.590463,-0.312655 -2.066243,-0.924371 z m 2.365304,-5.532636 c 0,-1.264214 0.706873,-2.09343 1.794369,-2.09343 1.101089,0 1.903118,0.869997 1.903118,2.079836 0,1.20984 -0.802029,2.066243 -1.916712,2.066243 -1.073902,0 -1.780775,-0.802028 -1.780775,-2.052649 z"
         id="path850"
         style="stroke:url(#linearGradient1274);fill-opacity:1;fill:url(#linearGradient940);stroke-opacity:1" />
      <path
         d="m 103.50222,11.339559 h -2.74592 v 2.732334 h 2.74592 z m 0,8.292158 v -2.745928 h -2.74592 v 2.745928 z"
         id="path852"
         style="stroke:url(#linearGradient1274);fill-opacity:1;fill:url(#linearGradient940);stroke-opacity:1" />
      <path
         d="m 116.8746,19.631717 c 0.068,-0.434999 0.24468,-1.033122 0.58452,-1.998274 l 1.31859,-3.724674 c 0.17672,-0.489373 0.31266,-0.978747 0.61172,-2.039055 -0.0136,0.203905 -0.0136,0.203905 -0.0544,0.924371 -0.0272,0.421405 -0.068,1.440933 -0.068,1.767181 v 2.963427 c 0,0.965153 -0.0272,1.481713 -0.10875,2.107024 h 2.67796 c -0.0816,-0.543748 -0.10875,-1.073903 -0.10875,-2.107024 v -7.082318 c 0,-0.9107778 0.0272,-1.4681195 0.10875,-2.1206171 h -3.60233 c -0.0816,0.5709354 -0.19032,1.0059338 -0.50297,1.9167121 l -2.02546,5.858884 -2.03906,-5.858884 c -0.31265,-0.8971846 -0.4214,-1.332183 -0.51656,-1.9167121 h -3.58874 c 0.068,0.5845291 0.10875,1.3049952 0.10875,2.1206171 v 7.082318 c 0,0.924372 -0.0272,1.495307 -0.10875,2.107024 h 2.67796 c -0.0816,-0.570936 -0.10875,-1.169059 -0.10875,-2.107024 V 14.57486 c 0,-0.720466 -0.0544,-1.83515 -0.13593,-2.691553 0.068,0.190312 0.068,0.190312 0.2175,0.679685 0.0408,0.10875 0.44859,1.372964 0.46218,1.440933 l 1.25062,3.615924 c 0.36703,1.033121 0.51656,1.536088 0.58453,2.011868 z"
         id="path854"
         style="stroke:url(#linearGradient1274);fill-opacity:1;fill:url(#linearGradient963);stroke-opacity:1" />
      <path
         d="m 131.66922,16.246885 c -0.0136,-0.135937 -0.0136,-0.217499 -0.0136,-0.271874 -0.0408,-0.774841 -0.0952,-1.345776 -0.20391,-1.780775 -0.47578,-2.025461 -1.95749,-3.180925 -4.07811,-3.180925 -2.5964,0 -4.3228,1.780774 -4.3228,4.472327 0,1.345776 0.435,2.501241 1.23703,3.316863 0.77484,0.774841 1.82156,1.155464 3.15374,1.155464 1.34578,0 2.43327,-0.394217 3.20811,-1.155464 0.38063,-0.380624 0.58453,-0.693279 0.89719,-1.400151 l -2.36531,-0.666092 c -0.10875,0.353437 -0.2039,0.502967 -0.40781,0.693279 -0.35343,0.326249 -0.82921,0.502967 -1.37296,0.502967 -1.0739,0 -1.71281,-0.584529 -1.84875,-1.685619 z m -6.07638,-1.87593 c 0.23109,-0.897185 0.81562,-1.332183 1.78077,-1.332183 0.93797,0 1.52249,0.462186 1.71281,1.332183 z"
         id="path856"
         style="stroke:url(#linearGradient1274);fill-opacity:1;fill:url(#linearGradient940);stroke-opacity:1" />
      <path
         d="m 138.20099,14.262205 c -0.97875,0.02719 -1.38656,0.04078 -1.91671,0.09516 -1.22344,0.108749 -2.13421,0.394217 -2.82749,0.88359 -0.6525,0.448592 -0.99234,1.128278 -0.99234,1.984681 0,0.747653 0.25828,1.400151 0.74765,1.848743 0.54375,0.502967 1.31859,0.747653 2.35171,0.747653 1.11468,0 1.87593,-0.231092 2.63718,-0.815622 v 0.625311 h 2.63718 c -0.068,-0.611717 -0.0952,-1.10109 -0.0952,-1.930306 v -3.670299 c 0,-1.223433 -0.38062,-1.971087 -1.25062,-2.446866 -0.53015,-0.285468 -1.5089,-0.47578 -2.51483,-0.47578 -1.31859,0 -2.32453,0.258281 -3.05859,0.774841 -0.57093,0.407811 -0.86999,0.84281 -1.14187,1.644838 l 2.5964,0.421405 c 0.2039,-0.666091 0.66609,-0.951559 1.53609,-0.951559 0.89718,0 1.2914,0.299061 1.2914,0.951559 z m 0,2.120617 c 0,0.407811 -0.17672,0.774841 -0.48937,1.046715 -0.36703,0.312655 -0.97875,0.516561 -1.53609,0.516561 -0.70688,0 -1.11469,-0.285468 -1.11469,-0.774841 0,-0.394217 0.29907,-0.73406 0.78844,-0.897184 0.55734,-0.176719 1.14187,-0.244687 2.35171,-0.271874 z"
         id="path858"
         style="stroke:url(#linearGradient1274);fill-opacity:1;fill:url(#linearGradient940);stroke-opacity:1" />
      <path
         d="m 143.35534,11.339559 h -0.48937 c -0.47578,0 -0.81562,-0.02719 -1.20984,-0.08156 v 2.270148 c 0.39422,-0.05438 0.74765,-0.08156 1.18265,-0.08156 h 0.51656 v 4.159672 c 0,0.924372 0.19031,1.386558 0.70687,1.780775 0.435,0.326249 1.07391,0.47578 1.99828,0.47578 0.73406,0 1.26421,-0.08156 1.87593,-0.271874 l -0.20391,-2.066243 c -0.33984,0.176718 -0.59812,0.244687 -0.95156,0.244687 -0.25828,0 -0.47578,-0.05438 -0.62531,-0.149531 -0.17671,-0.122343 -0.24468,-0.312655 -0.24468,-0.693279 v -3.479987 h 0.57093 c 0.48938,0 0.84281,0.02719 1.25062,0.08156 v -2.256554 c -0.4214,0.05437 -0.73406,0.06797 -1.33218,0.06797 h -0.48937 v -0.285467 c 0,-0.652498 0.0408,-1.3049956 0.10875,-1.8623373 h -2.77312 c 0.0816,0.6389039 0.10875,1.1826523 0.10875,1.8623373 z"
         id="path860"
         style="stroke:url(#linearGradient1274);fill-opacity:1;fill:url(#linearGradient940);stroke-opacity:1" />
      <path
         d="m 153.571,17.687817 c 0,0.937966 -0.0272,1.386558 -0.10875,1.984681 0.57094,-0.02719 0.95156,-0.04078 1.99828,-0.04078 h 2.86827 c 1.61765,0 2.90905,-0.462186 3.81983,-1.35937 1.03312,-1.033122 1.57687,-2.528429 1.57687,-4.390766 0,-1.807962 -0.50297,-3.2353 -1.49531,-4.2140468 -0.91078,-0.8835905 -2.25655,-1.3457763 -3.92858,-1.3457763 h -2.84108 c -1.12828,0 -1.46812,-0.013594 -2.01187,-0.040781 0.0952,0.6253102 0.12234,1.0739023 0.12234,1.9982742 z m 2.69155,-0.434998 v -6.552164 h 1.78078 c 0.97875,0 1.63124,0.2175 2.10702,0.693279 0.53016,0.530154 0.78844,1.372964 0.78844,2.528428 0,1.128278 -0.29906,2.039055 -0.85641,2.609991 -0.48937,0.489373 -1.11468,0.720466 -1.99827,0.720466 z"
         id="path862"
         style="stroke:url(#linearGradient1274);fill-opacity:1;fill:url(#linearGradient940);stroke-opacity:1" />
      <path
         d="m 171.72498,11.339559 c -0.63891,-0.135937 -0.91078,-0.163124 -1.34578,-0.163124 -1.23703,0 -2.05265,0.36703 -2.71874,1.237027 v -1.073903 h -2.70515 c 0.0816,0.584529 0.10875,1.060309 0.10875,2.052649 v 4.18686 c 0,0.88359 -0.0272,1.372964 -0.10875,2.052649 h 2.8139 c -0.0816,-0.652498 -0.10875,-1.169059 -0.10875,-2.039055 v -2.120618 c 0.0544,-0.598123 0.14953,-0.88359 0.40781,-1.209839 0.39422,-0.489373 0.92437,-0.73406 1.61765,-0.73406 0.42141,0 0.76125,0.06797 1.38656,0.25828 z"
         id="path864"
         style="stroke:url(#linearGradient1274);fill-opacity:1;fill:url(#linearGradient940);stroke-opacity:1" />
      <path
         d="m 180.81364,16.246885 c -0.0136,-0.135937 -0.0136,-0.217499 -0.0136,-0.271874 -0.0408,-0.774841 -0.0951,-1.345776 -0.2039,-1.780775 -0.47578,-2.025461 -1.9575,-3.180925 -4.07811,-3.180925 -2.5964,0 -4.3228,1.780774 -4.3228,4.472327 0,1.345776 0.435,2.501241 1.23703,3.316863 0.77484,0.774841 1.82155,1.155464 3.15374,1.155464 1.34577,0 2.43327,-0.394217 3.20811,-1.155464 0.38062,-0.380624 0.58453,-0.693279 0.89718,-1.400151 l -2.3653,-0.666092 c -0.10875,0.353437 -0.20391,0.502967 -0.40781,0.693279 -0.35344,0.326249 -0.82922,0.502967 -1.37297,0.502967 -1.0739,0 -1.7128,-0.584529 -1.84874,-1.685619 z m -6.07639,-1.87593 c 0.2311,-0.897185 0.81562,-1.332183 1.78078,-1.332183 0.93796,0 1.52249,0.462186 1.7128,1.332183 z"
         id="path866"
         style="stroke:url(#linearGradient1274);fill-opacity:1;fill:url(#linearGradient940);stroke-opacity:1" />
      <path
         d="m 187.3454,14.262205 c -0.97875,0.02719 -1.38656,0.04078 -1.91671,0.09516 -1.22344,0.108749 -2.13421,0.394217 -2.82749,0.88359 -0.6525,0.448592 -0.99234,1.128278 -0.99234,1.984681 0,0.747653 0.25828,1.400151 0.74765,1.848743 0.54375,0.502967 1.31859,0.747653 2.35171,0.747653 1.11468,0 1.87593,-0.231092 2.63718,-0.815622 v 0.625311 h 2.63718 c -0.068,-0.611717 -0.0952,-1.10109 -0.0952,-1.930306 v -3.670299 c 0,-1.223433 -0.38062,-1.971087 -1.25062,-2.446866 -0.53015,-0.285468 -1.5089,-0.47578 -2.51484,-0.47578 -1.31858,0 -2.32452,0.258281 -3.05858,0.774841 -0.57093,0.407811 -0.86999,0.84281 -1.14187,1.644838 l 2.5964,0.421405 c 0.2039,-0.666091 0.66609,-0.951559 1.53609,-0.951559 0.89718,0 1.2914,0.299061 1.2914,0.951559 z m 0,2.120617 c 0,0.407811 -0.17672,0.774841 -0.48938,1.046715 -0.36703,0.312655 -0.97874,0.516561 -1.53608,0.516561 -0.70688,0 -1.11469,-0.285468 -1.11469,-0.774841 0,-0.394217 0.29906,-0.73406 0.78844,-0.897184 0.55734,-0.176719 1.14187,-0.244687 2.35171,-0.271874 z"
         id="path868"
         style="stroke:url(#linearGradient1274);fill-opacity:1;fill:url(#linearGradient940);stroke-opacity:1" />
      <path
         d="m 194.22615,19.631717 c -0.0816,-0.666092 -0.10875,-1.196246 -0.10875,-2.052649 V 14.83314 c 0.38062,-0.924371 1.00594,-1.454526 1.74,-1.454526 0.32624,0 0.59812,0.122344 0.74765,0.339843 0.17672,0.231093 0.23109,0.489373 0.23109,1.060309 v 2.800302 c 0,0.869997 -0.0272,1.440932 -0.10875,2.052649 h 2.82749 c -0.0816,-0.652498 -0.10875,-1.223433 -0.10875,-2.039055 v -2.773115 c 0.33984,-0.910778 0.96515,-1.454526 1.65843,-1.454526 0.77484,0 1.07391,0.394217 1.07391,1.413745 v 2.800302 c 0,0.924371 -0.0272,1.413745 -0.10875,2.052649 h 2.82749 c -0.0816,-0.638904 -0.10875,-1.196246 -0.10875,-2.039055 v -3.371238 c 0,-2.052649 -0.99234,-3.112958 -2.93624,-3.112958 -1.18266,0 -2.01187,0.353437 -2.85468,1.182652 -0.17672,-0.339842 -0.31266,-0.502967 -0.55734,-0.679685 -0.44859,-0.326248 -1.03312,-0.489373 -1.74,-0.489373 -1.0739,0 -1.90311,0.353436 -2.59639,1.114684 0,-0.02719 0,-0.05438 0,-0.06797 0,-0.04078 0,-0.06797 0,-0.06797 0.0136,-0.135937 0.0136,-0.135937 0.0136,-0.190312 v -0.570936 h -2.69155 c 0.0816,0.530155 0.10875,1.019528 0.10875,2.052649 v 4.18686 c 0,0.856403 -0.0272,1.427338 -0.10875,2.052649 z"
         id="path870"
         style="stroke:url(#linearGradient1274);fill-opacity:1;fill:url(#linearGradient940);stroke-opacity:1" />
      <path
         d="m 206.00786,17.157663 c 0.13594,0.652498 0.27188,0.978747 0.54375,1.35937 0.6525,0.897184 1.86234,1.35937 3.57514,1.35937 1.45453,0 2.56921,-0.339842 3.22171,-0.99234 0.44859,-0.434998 0.69328,-1.087496 0.69328,-1.807962 0,-0.978747 -0.42141,-1.644838 -1.305,-2.079836 -0.47578,-0.244687 -0.89718,-0.36703 -2.22936,-0.652498 -1.34578,-0.299061 -1.63125,-0.434998 -1.63125,-0.802028 0,-0.353436 0.435,-0.584529 1.14187,-0.584529 0.73406,0 1.07391,0.244686 1.14187,0.802028 l 2.62359,-0.285468 c -0.2175,-0.761247 -0.435,-1.155464 -0.88359,-1.549682 -0.63891,-0.584529 -1.60406,-0.869996 -2.89546,-0.869996 -2.27015,0 -3.64311,0.99234 -3.64311,2.623584 0,0.462186 0.12234,0.924371 0.33984,1.291401 0.25828,0.407811 0.70687,0.720466 1.35937,0.965153 0.44859,0.149531 0.97875,0.285468 2.01187,0.489373 0.74765,0.149531 0.92437,0.203906 1.11468,0.312655 0.19031,0.10875 0.29906,0.285468 0.29906,0.489374 0,0.421404 -0.46218,0.652497 -1.2778,0.652497 -0.91078,0 -1.37297,-0.312655 -1.50891,-1.019527 z"
         id="path872"
         style="stroke:url(#linearGradient1274);fill-opacity:1;fill:url(#linearGradient940);stroke-opacity:1" />
    </g>
    <g
       id="text15174"
       style="font-size:21.3333px;line-height:1.25;font-family:'Hiragino Kaku Gothic StdN';-inkscape-font-specification:'Hiragino Kaku Gothic StdN';stroke:url(#linearGradient1274);fill-opacity:1;fill:url(#linearGradient940);stroke-opacity:1" />
  </g>
</svg>
